# This file uses centimeters as units for non-parametric coordinates.

mtllib e.mtl
g default
v 0.181560 -5.703372 -0.100911
v 0.181560 -4.851580 1.570832
v 0.181560 -3.524878 2.897530
v 0.181560 -1.853138 3.749326
v 0.181560 0.000000 4.042835
v 0.181560 1.853139 3.749325
v 0.181560 3.524877 2.897528
v 0.181560 4.851580 1.570830
v 0.181560 5.703372 -0.100910
v 0.000000 -6.771059 0.246005
v 0.000000 -5.759820 2.230704
v 0.000000 -4.184751 3.805770
v 0.000000 -2.200051 4.817029
v 0.000000 0.000000 5.165480
v 0.000000 2.200053 4.817028
v 0.000000 4.184748 3.805768
v 0.000000 5.759820 2.230702
v 0.000000 6.771058 0.246007
v -0.181560 -5.703372 -0.100911
v -0.181560 -4.851580 1.570832
v -0.181560 -3.524878 2.897530
v -0.181560 -1.853138 3.749326
v -0.181560 0.000000 4.042835
v -0.181560 1.853139 3.749325
v -0.181560 3.524877 2.897528
v -0.181560 4.851580 1.570830
v -0.181560 5.703372 -0.100910
vt 0.059224 0.919480
vt 0.202250 0.856831
vt 0.258705 0.923632
vt 0.088905 0.998008
vt 0.315755 0.759253
vt 0.393460 0.807786
vt 0.388631 0.636297
vt 0.479978 0.661813
vt 0.413742 0.500000
vt 0.509789 0.500000
vt 0.388631 0.363703
vt 0.479978 0.338187
vt 0.315755 0.240747
vt 0.393460 0.192214
vt 0.202250 0.143169
vt 0.258705 0.076368
vt 0.059224 0.080520
vt 0.088905 0.001992
vt 0.938020 0.998008
vt 0.768219 0.923632
vt 0.824674 0.856831
vt 0.967700 0.919480
vt 0.633464 0.807786
vt 0.711169 0.759253
vt 0.546946 0.661813
vt 0.638293 0.636297
vt 0.517135 0.500000
vt 0.613182 0.500000
vt 0.546946 0.338187
vt 0.638294 0.363703
vt 0.633464 0.192214
vt 0.711169 0.240747
vt 0.768219 0.076368
vt 0.824674 0.143169
vt 0.938019 0.001992
vt 0.967700 0.080520
vn 0.986858 -0.143978 0.073360
vn 0.986858 -0.143978 0.073360
vn 0.986858 -0.143978 0.073360
vn 0.986858 -0.143978 0.073360
vn 0.986858 -0.114261 0.114261
vn 0.986858 -0.114261 0.114261
vn 0.986858 -0.114261 0.114261
vn 0.986858 -0.114261 0.114261
vn 0.986858 -0.073360 0.143977
vn 0.986858 -0.073360 0.143977
vn 0.986858 -0.073360 0.143977
vn 0.986858 -0.073360 0.143977
vn 0.986858 -0.025278 0.159600
vn 0.986858 -0.025278 0.159600
vn 0.986858 -0.025278 0.159600
vn 0.986858 -0.025278 0.159600
vn 0.986858 0.025278 0.159600
vn 0.986858 0.025278 0.159600
vn 0.986858 0.025278 0.159600
vn 0.986858 0.025278 0.159600
vn 0.986858 0.073360 0.143977
vn 0.986858 0.073360 0.143977
vn 0.986858 0.073360 0.143977
vn 0.986858 0.073360 0.143977
vn 0.986858 0.114261 0.114261
vn 0.986858 0.114261 0.114261
vn 0.986858 0.114261 0.114261
vn 0.986858 0.114261 0.114261
vn 0.986858 0.143978 0.073360
vn 0.986858 0.143978 0.073360
vn 0.986858 0.143978 0.073360
vn 0.986858 0.143978 0.073360
vn -0.986858 -0.143978 0.073360
vn -0.986858 -0.143978 0.073360
vn -0.986858 -0.143978 0.073360
vn -0.986858 -0.143978 0.073360
vn -0.986858 -0.114261 0.114261
vn -0.986858 -0.114261 0.114261
vn -0.986858 -0.114261 0.114261
vn -0.986858 -0.114261 0.114261
vn -0.986858 -0.073360 0.143977
vn -0.986858 -0.073360 0.143977
vn -0.986858 -0.073360 0.143977
vn -0.986858 -0.073360 0.143977
vn -0.986858 -0.025278 0.159600
vn -0.986858 -0.025278 0.159600
vn -0.986858 -0.025278 0.159600
vn -0.986858 -0.025278 0.159600
vn -0.986858 0.025278 0.159600
vn -0.986858 0.025278 0.159600
vn -0.986858 0.025278 0.159600
vn -0.986858 0.025278 0.159600
vn -0.986858 0.073360 0.143977
vn -0.986858 0.073360 0.143977
vn -0.986858 0.073360 0.143977
vn -0.986858 0.073360 0.143977
vn -0.986858 0.114261 0.114261
vn -0.986858 0.114261 0.114261
vn -0.986858 0.114261 0.114261
vn -0.986858 0.114261 0.114261
vn -0.986858 0.143978 0.073360
vn -0.986858 0.143978 0.073360
vn -0.986858 0.143978 0.073360
vn -0.986858 0.143978 0.073360
s off
g pCylinder2
usemtl initialShadingGroup
f 1/1/1 2/2/2 11/3/3 10/4/4
f 2/2/5 3/5/6 12/6/7 11/3/8
f 3/5/9 4/7/10 13/8/11 12/6/12
f 4/7/13 5/9/14 14/10/15 13/8/16
f 5/9/17 6/11/18 15/12/19 14/10/20
f 6/11/21 7/13/22 16/14/23 15/12/24
f 7/13/25 8/15/26 17/16/27 16/14/28
f 8/15/29 9/17/30 18/18/31 17/16/32
f 10/19/33 11/20/34 20/21/35 19/22/36
f 11/20/37 12/23/38 21/24/39 20/21/40
f 12/23/41 13/25/42 22/26/43 21/24/44
f 13/25/45 14/27/46 23/28/47 22/26/48
f 14/27/49 15/29/50 24/30/51 23/28/52
f 15/29/53 16/31/54 25/32/55 24/30/56
f 16/31/57 17/33/58 26/34/59 25/32/60
f 17/33/61 18/35/62 27/36/63 26/34/64
